<svg xmlns="http://www.w3.org/2000/svg" xmlns:xlink="http://www.w3.org/1999/xlink" width="20" height="20" viewBox="0 0 20 20"><defs><path id="p0cja" d="M1142 3314.9c2 0 6 5.09 6 7.09a10 10 0 1 0-16-7.99c0 3.25 1.57 2.17 4 4 0-2 4-3.1 6-3.1zm0 6.3c-2.5 0-4.7 2.69-6 .79a9.94 9.94 0 0 0 6 2.01c2.25 0 4.33-4.74 6-6a7.3 7.3 0 0 1-6 3.2zm3-11.2c0 1.7-1.3 3-3 3s-3-1.3-3-3 1.3-3 3-3 3 1.3 3 3z"/></defs><g><g transform="translate(-1132 -3304)"><use fill="#8d96b2" fill-opacity=".5" xlink:href="#p0cja"/></g></g></svg>