<?xml version="1.0" encoding="UTF-8"?>
<svg width="21px" height="14px" viewBox="0 0 21 14" version="1.1" xmlns="http://www.w3.org/2000/svg" >
    <defs></defs>
    <g id="Symbols" stroke="none" stroke-width="1" fill="none" fill-rule="evenodd">
        <g id="ico_mail-copy-5" transform="translate(-7.000000, -10.000000)" fill="#8D96B2" fill-rule="nonzero">
            <g id="Group" transform="translate(7.000000, 10.000000)">
                <path d="M19.4034324,0.182 L10.4735135,5.73451351 L1.54359459,0.182 C1.82359459,0.0658378378 2.12856757,0 2.44810811,0 L18.4989189,0 C18.8184595,0 19.1230541,0.0658378378 19.4034324,0.182 Z M10.7455676,7.85362162 C10.9553784,7.82259459 11.1562973,7.75656757 11.3241081,7.65213514 L20.8204595,1.74754054 C20.9018108,2.00105405 20.9472162,2.27159459 20.9472162,2.55348649 L20.9472162,11.0652973 C20.9472162,12.4758919 19.8508649,13.618973 18.4989189,13.618973 L2.44810811,13.618973 C1.09616216,13.618973 0,12.4758919 0,11.0652973 L0,2.55348649 C0,2.27159459 0.0454054054,2.00105405 0.126567568,1.74754054 L9.62272973,7.65251351 C9.79054054,7.75656757 9.99164865,7.82278378 10.2014595,7.85362162 C10.2048649,7.85456757 10.2080811,7.85456757 10.2118649,7.85532432 C10.2444054,7.86005405 10.2769459,7.86364865 10.3098649,7.86648649 C10.3206486,7.86724324 10.3308649,7.86837838 10.3416486,7.86913514 C10.3675676,7.87064865 10.3929189,7.87216216 10.4188378,7.87291892 C10.437,7.8732973 10.4553514,7.87367568 10.4735135,7.87367568 C10.4916757,7.87367568 10.5096486,7.8732973 10.5281892,7.87291892 C10.5539189,7.87216216 10.5794595,7.87064865 10.605,7.86913514 C10.6161622,7.86837838 10.6263784,7.86724324 10.6371622,7.86648649 C10.6700811,7.86364865 10.7026216,7.85986486 10.7351622,7.85532432 C10.7385676,7.85456757 10.7421622,7.85456757 10.7455676,7.85362162 Z" id="Combined-Shape"></path>
            </g>
        </g>
    </g>
</svg>