<?xml version="1.0" encoding="UTF-8"?>
<svg width="74px" height="67px" viewBox="0 0 74 67" version="1.1" xmlns="http://www.w3.org/2000/svg" xmlns:xlink="http://www.w3.org/1999/xlink">
    <!-- Generator: Sketch 49 (51002) - http://www.bohemiancoding.com/sketch -->
    <title>ico_brands</title>
    <desc>Created with Sketch.</desc>
    <defs></defs>
    <g id="Page-1" stroke="none" stroke-width="1" fill="none" fill-rule="evenodd">
        <g id="ico_brands" transform="translate(0.000000, -18.000000)">
            <rect id="Rectangle-path" x="0" y="0" width="88" height="88"></rect>
            <rect id="Rectangle-path" fill="#FFE735" fill-rule="nonzero" x="0" y="61" width="74" height="24" rx="4"></rect>
            <path d="M19.8045214,22.081077 C30.8986033,15.405013 45.0990705,17.0462743 54.3776512,26.0769739 C63.6562504,35.1076913 65.6808361,49.2580727 59.3067943,60.5281348 C52.9327633,71.7981777 39.7622019,77.3552644 27.2411306,74.0576922 C14.7201132,70.7601343 5.99560909,59.436801 6.00000166,46.4893281 C5.99942735,36.4945037 11.2386971,27.2309218 19.8045214,22.081077 Z M34.7015032,31.4498586 L30.4888176,40.0883228 C30.3404727,40.3925165 30.0483338,40.6010364 29.7124427,40.6424756 L20.245231,41.8104548 L27.0745339,48.5903297 C27.3113015,48.8253837 27.4152509,49.1630335 27.3516773,49.4905509 L25.510625,58.9752578 L33.9312431,54.5066728 C34.2325766,54.3467636 34.5946389,54.351497 34.891689,54.5192291 L43.1982912,59.2096303 L41.6036982,49.6749505 C41.5486986,49.3460875 41.6612268,49.0114459 41.9037539,48.7826306 L48.8964753,42.1852573 L39.4724192,40.77905 C39.1380435,40.7291562 38.8515167,40.5136919 38.710774,40.2063029 L34.7015032,31.4498586 Z M33.8311824,28.6716772 C34.2013642,27.9125884 35.2876409,27.925818 35.639226,28.6936971 L40.3036064,38.8809329 L51.2275808,40.51095 C52.0530542,40.6341227 52.3733176,41.65462 51.7662461,42.2273694 L43.6643045,49.8712508 L45.5163018,60.9450495 C45.6549974,61.7743633 44.7704827,62.3941985 44.038311,61.9807709 L34.3850964,56.5299922 L24.5987569,61.7233272 C23.8560809,62.1174445 22.988113,61.474815 23.1483227,60.6494491 L25.2865929,49.6335393 L17.3754661,41.7796703 C16.7831927,41.1916836 17.1292616,40.1797121 17.9575573,40.0775244 L28.9290236,38.7239638 L33.8311824,28.6716772 Z M8.00000167,46.4894043 C7.99583141,58.5287056 16.1080845,69.0574762 27.750486,72.1236402 C39.3928997,75.1898075 51.6392172,70.0226893 57.5659338,59.5435512 C63.4926396,49.0644323 61.6101426,35.9071477 52.9827119,27.5102025 C44.3552629,19.1132394 31.1512975,17.5871518 20.8353877,23.7949366 C12.8707333,28.5833531 7.9994009,37.1964467 8.00000167,46.4894043 Z" id="Shape" fill="#413E3E" fill-rule="nonzero"></path>
        </g>
    </g>
</svg>