<?xml version="1.0" encoding="UTF-8"?>
<svg width="74px" height="67px" viewBox="0 0 74 67" version="1.1" xmlns="http://www.w3.org/2000/svg" xmlns:xlink="http://www.w3.org/1999/xlink">
    <!-- Generator: Sketch 49 (51002) - http://www.bohemiancoding.com/sketch -->
    <title>ico_udobnRaspZavodov</title>
    <desc>Created with Sketch.</desc>
    <defs></defs>
    <g id="Page-1" stroke="none" stroke-width="1" fill="none" fill-rule="evenodd">
        <g id="ico_udobnRaspZavodov" transform="translate(0.000000, -18.000000)">
            <rect id="Rectangle-path" x="0" y="0" width="88" height="88"></rect>
            <rect id="Rectangle-path" fill="#FFE735" fill-rule="nonzero" x="0" y="61" width="74" height="24" rx="4"></rect>
            <path d="M27.084974,18.1227711 C33.5308918,18.3588731 39.5003011,21.6586636 43.1250047,27.0349967 C46.9086449,32.6470724 47.636667,39.7789845 45.0432917,46.0888889 C40.3314828,56.0093332 34.3973889,65.3015006 27.3791788,73.7490337 C27.175795,73.9938384 26.8802392,74.1169187 26.5849886,74.109728 C26.29003,74.116906 25.9947475,73.9940743 25.7913565,73.7496774 C18.7625558,65.3037917 12.8182606,56.0115325 8.07499532,46.0397592 C5.5018657,39.7754582 6.23215819,32.63934 10.0208063,27.0260962 C13.6521267,21.6459485 19.6319003,18.3481218 26.0853607,18.1213431 C26.1340584,18.113784 26.1839252,18.1097358 26.2346957,18.1094665 C26.3414421,18.1089002 26.4480815,18.1091761 26.5546056,18.1102896 C26.678361,18.1088067 26.8022728,18.1084544 26.926328,18.1092394 C26.9803438,18.1095812 27.0333321,18.1141995 27.084974,18.1227711 Z M26.5561459,20.1104296 C20.5879908,20.1892954 15.0260178,23.1853803 11.6785436,28.1449828 C8.26426397,33.2035639 7.60613381,39.6345414 9.90298566,45.2301328 C14.3849634,54.64935 19.9861601,63.4922343 26.5843634,71.5677401 C33.1723436,63.4909798 38.7629949,54.6501038 43.2149931,45.2799116 C45.5325387,39.6377376 44.8764549,33.2105533 41.4666895,28.1530266 C38.1149441,23.1815581 32.5384917,20.1803372 26.5561459,20.1104296 Z M26.58,47.11 C21.0571525,47.11 16.58,42.6328475 16.58,37.11 C16.58,31.5871525 21.0571525,27.11 26.58,27.11 C32.1028475,27.11 36.58,31.5871525 36.58,37.11 C36.58,42.6328475 32.1028475,47.11 26.58,47.11 Z M26.58,45.11 C30.998278,45.11 34.58,41.528278 34.58,37.11 C34.58,32.691722 30.998278,29.11 26.58,29.11 C22.161722,29.11 18.58,32.691722 18.58,37.11 C18.58,41.528278 22.161722,45.11 26.58,45.11 Z" id="Shape" fill="#413E3E" fill-rule="nonzero"></path>
        </g>
    </g>
</svg>