<?xml version="1.0" encoding="UTF-8"?>
<svg width="80px" height="68px" viewBox="0 0 80 68" version="1.1" xmlns="http://www.w3.org/2000/svg" xmlns:xlink="http://www.w3.org/1999/xlink">
    <!-- Generator: Sketch 49 (51002) - http://www.bohemiancoding.com/sketch -->
    <title>ico_obotot</title>
    <desc>Created with Sketch.</desc>
    <defs></defs>
    <g id="Page-1" stroke="none" stroke-width="1" fill="none" fill-rule="evenodd">
        <g id="ico_obotot" transform="translate(0.000000, -17.000000)">
            <rect id="Rectangle-path" x="0" y="0" width="88" height="88"></rect>
            <rect id="Rectangle-path" fill="#FFE735" fill-rule="nonzero" x="0" y="61" width="80" height="24" rx="4"></rect>
            <path d="M30,32 C30,31.4477153 30.4477153,31 31,31 L41.0518529,31.0013453 C47.5676691,31.3396643 50.9951512,34.7671464 50.9999997,40.999222 C51.004849,47.2322787 47.5767648,50.6603629 41.0000028,51 L32,51.0000252 L32,54 L47,54 C47.5522847,54 48,54.4477153 48,55 C48,55.5522847 47.5522847,56 47,56 L32,56 L32,60 C32,60.5522847 31.5522847,61 31,61 C30.4477153,61 30,60.5522847 30,60 L30,56 L28,56 C27.4477153,56 27,55.5522847 27,55 C27,54.4477153 27.4477153,54 28,54 L30,54 L30,51.0000308 L28.0000028,51.0000364 C27.4477181,51.000038 27.0000015,50.552324 27,50.0000392 C26.9999985,49.4477545 27.4477124,49.000038 27.9999972,49.0000364 L30,49.000238 L30,32 Z M32,49.0004395 L40.9482233,49.0013413 C46.4320867,48.7170239 49.0040026,46.145108 49.0000003,41.000778 C48.9959973,35.8554669 46.4234794,33.282949 41,33 L32,33 L32,49.0004395 Z M66.3309817,52.4331084 C63.0335492,65.4275683 51.0566021,74.5107932 37.4658431,73.9792832 C23.147238,73.4193085 11.4479172,62.3596887 10.0845365,48.0951447 C10.0319896,47.5453654 10.435076,47.0570835 10.9848553,47.0045365 C11.5346346,46.9519896 12.0229165,47.355076 12.0754635,47.9048553 C13.3436027,61.172924 24.2256465,71.4599543 37.5439997,71.9808109 C50.3494492,72.4816088 61.6145986,63.8056394 64.5080582,51.4672629 L58.0757365,55.8210866 C57.6195191,56.1298849 56.9993986,56.0108105 56.69,55.555 C56.689821,55.5547363 56.6896422,55.5544726 56.6894635,55.5542088 C56.3809177,55.0987146 56.5000429,54.4793378 56.955537,54.170792 L65.1890911,48.5934901 C65.2093077,48.5797956 65.2300192,48.5668462 65.2511838,48.5546679 C65.7298785,48.279223 66.3412293,48.4439895 66.6166742,48.9226842 L71.572245,57.5349532 C71.847306,58.0129809 71.6834206,58.6234563 71.2059359,58.899459 L71.205,58.9 C71.2044394,58.9003241 71.2038785,58.9006476 71.2033172,58.9009705 C70.7259847,59.1756461 70.1163616,59.0113601 69.8416861,58.5340276 L66.3309817,52.4331084 Z M10.8290794,38.5488492 C14.1293923,25.5530377 26.1109132,16.4716269 39.7033617,17.008171 C54.0229158,17.5734165 65.7187374,28.6389895 67.0755082,42.9053242 C67.1277961,43.4551282 66.7244798,43.9432202 66.1746758,43.9955082 C65.6248718,44.0477961 65.1367798,43.6444798 65.0844918,43.0946758 C63.8225007,29.8249415 52.9437117,19.5323739 39.6244757,19.0066146 C26.8179103,18.5010923 15.5487778,27.1747284 12.6521317,39.5137249 L19.0837944,35.1682197 C19.540383,34.859729 20.1605254,34.9790776 20.47,35.435 C20.4703073,35.4354527 20.4706142,35.4359057 20.4709208,35.4363589 C20.7789402,35.8917516 20.6594705,36.5106195 20.2040777,36.8186389 L11.9703379,42.3877916 C11.9504169,42.4012657 11.9300164,42.4140169 11.9091761,42.4260201 C11.4305959,42.7016639 10.8191766,42.5371514 10.5435329,42.0585713 L5.58832152,33.4551993 C5.31298086,32.9771454 5.47679812,32.3664173 5.9544232,32.0903334 L5.955,32.09 C5.95541519,32.08976 5.95583056,32.0895203 5.95624609,32.0892809 C6.43368113,31.8142247 7.04369586,31.9782851 7.31875211,32.4557201 L10.8290794,38.5488492 Z" id="Shape" fill="#413E3E" fill-rule="nonzero"></path>
        </g>
    </g>
</svg>