<?xml version="1.0" encoding="UTF-8"?>
<svg width="74px" height="63px" viewBox="0 0 74 63" version="1.1" xmlns="http://www.w3.org/2000/svg" xmlns:xlink="http://www.w3.org/1999/xlink">
    <!-- Generator: Sketch 49 (51002) - http://www.bohemiancoding.com/sketch -->
    <title>ico_controlsale</title>
    <desc>Created with Sketch.</desc>
    <defs></defs>
    <g id="Page-1" stroke="none" stroke-width="1" fill="none" fill-rule="evenodd">
        <g id="ico_controlsale" transform="translate(0.000000, -22.000000)">
            <rect id="Rectangle-path" x="0" y="0" width="88" height="88"></rect>
            <rect id="Rectangle-path" fill="#FFE735" fill-rule="nonzero" x="0" y="61" width="74" height="24" rx="4"></rect>
            <path d="M28,68 L9,68 C8.44771525,68 8,67.5522847 8,67 C8,66.4477153 8.44771525,66 9,66 L28,66 L28,62.86 C28,61.2804656 29.2804656,60 30.86,60 L39.14,60 C40.7195344,60 42,61.2804656 42,62.86 L42,66 L56,66 C56.5522847,66 57,66.4477153 57,67 C57,67.5522847 56.5522847,68 56,68 L42,68 L42,71.14 C42,72.7195344 40.7195344,74 39.14,74 L30.86,74 C29.2804656,74 28,72.7195344 28,71.14 L28,68 Z M15,49 L9,49 C8.44771525,49 8,48.5522847 8,48 C8,47.4477153 8.44771525,47 9,47 L15,47 L15,43.86 C15,42.2804656 16.2804656,41 17.86,41 L26.14,41 C27.7195344,41 29,42.2804656 29,43.86 L29,47 L56,47 C56.5522847,47 57,47.4477153 57,48 C57,48.5522847 56.5522847,49 56,49 L29,49 L29,52.14 C29,53.7195344 27.7195344,55 26.14,55 L17.86,55 C16.2804656,55 15,53.7195344 15,52.14 L15,49 Z M37,30 L9,30 C8.44771525,30 8,29.5522847 8,29 C8,28.4477153 8.44771525,28 9,28 L37,28 L37,24.86 C37,23.2804656 38.2804656,22 39.86,22 L48.14,22 C49.7195344,22 51,23.2804656 51,24.86 L51,28 L56,28 C56.5522847,28 57,28.4477153 57,29 C57,29.5522847 56.5522847,30 56,30 L51,30 L51,33.14 C51,34.7195344 49.7195344,36 48.14,36 L39.86,36 C38.2804656,36 37,34.7195344 37,33.14 L37,30 Z M39.86,24 C39.3850351,24 39,24.3850351 39,24.86 L39,33.14 C39,33.6149649 39.3850351,34 39.86,34 L48.14,34 C48.6149649,34 49,33.6149649 49,33.14 L49,24.86 C49,24.3850351 48.6149649,24 48.14,24 L39.86,24 Z M17.86,43 C17.3850351,43 17,43.3850351 17,43.86 L17,52.14 C17,52.6149649 17.3850351,53 17.86,53 L26.14,53 C26.6149649,53 27,52.6149649 27,52.14 L27,43.86 C27,43.3850351 26.6149649,43 26.14,43 L17.86,43 Z M30.86,62 C30.3850351,62 30,62.3850351 30,62.86 L30,71.14 C30,71.6149649 30.3850351,72 30.86,72 L39.14,72 C39.6149649,72 40,71.6149649 40,71.14 L40,62.86 C40,62.3850351 39.6149649,62 39.14,62 L30.86,62 Z" id="Shape" fill="#413E3E" fill-rule="nonzero"></path>
        </g>
    </g>
</svg>