<?xml version="1.0" encoding="UTF-8"?>
<svg width="75px" height="64px" viewBox="0 0 75 64" version="1.1" xmlns="http://www.w3.org/2000/svg" xmlns:xlink="http://www.w3.org/1999/xlink">
    <!-- Generator: Sketch 49 (51002) - http://www.bohemiancoding.com/sketch -->
    <title>ico_assortiment</title>
    <desc>Created with Sketch.</desc>
    <defs></defs>
    <g id="Page-1" stroke="none" stroke-width="1" fill="none" fill-rule="evenodd">
        <g id="ico_assortiment" transform="translate(0.000000, -21.000000)">
            <rect id="Rectangle-path" x="1" y="0" width="88" height="88"></rect>
            <rect id="Rectangle-path" fill="#FFE735" fill-rule="nonzero" x="1" y="61" width="74" height="24" rx="4"></rect>
            <path d="M20.6969811,49 L63.7454236,49 L66.2908782,35 L17.987873,35 L20.6969811,49 Z M21.0839965,51 L22.2450428,57 L62.58,57 C63.1322847,57 63.58,57.4477153 63.58,58 C63.58,58.5522847 63.1322847,59 62.58,59 L21.42,59 C20.9409679,59 20.5292209,58.660291 20.4382127,58.1899834 L14.2974316,26.4559016 C13.9249463,24.4871595 12.2108722,23.007915 10.28,23 L1.58,23 C1.02771525,23 0.58,22.5522847 0.58,22 C0.58,21.4477153 1.02771525,21 1.58,21 L10.2840948,21.0000084 C13.192642,21.0119184 15.7147157,23.1884658 16.2617873,26.0800166 L16.4416482,27.009493 C16.4868695,27.0032346 16.533057,27 16.58,27 L68.58,27 C69.2039041,27 69.6754773,27.565045 69.5638699,28.1788854 L65.5638699,50.1788854 C65.4774171,50.6543761 65.0632861,51 64.58,51 L21.0839965,51 Z M16.8268266,29 L17.6008575,33 L66.6545146,33 L67.3817873,29 L16.8268266,29 Z M28.5,75 C24.9101491,75 22,72.0898509 22,68.5 C22,64.9101491 24.9101491,62 28.5,62 C32.0898509,62 35,64.9101491 35,68.5 C35,72.0898509 32.0898509,75 28.5,75 Z M28.5,73 C30.9852814,73 33,70.9852814 33,68.5 C33,66.0147186 30.9852814,64 28.5,64 C26.0147186,64 24,66.0147186 24,68.5 C24,70.9852814 26.0147186,73 28.5,73 Z M54.5,75 C50.9101491,75 48,72.0898509 48,68.5 C48,64.9101491 50.9101491,62 54.5,62 C58.0898509,62 61,64.9101491 61,68.5 C61,72.0898509 58.0898509,75 54.5,75 Z M54.5,73 C56.9852814,73 59,70.9852814 59,68.5 C59,66.0147186 56.9852814,64 54.5,64 C52.0147186,64 50,66.0147186 50,68.5 C50,70.9852814 52.0147186,73 54.5,73 Z" id="Shape" fill="#413E3E" fill-rule="nonzero"></path>
        </g>
    </g>
</svg>