<?xml version="1.0" encoding="UTF-8"?>
<svg width="74px" height="64px" viewBox="0 0 74 64" version="1.1" xmlns="http://www.w3.org/2000/svg" xmlns:xlink="http://www.w3.org/1999/xlink">
    <!-- Generator: Sketch 49 (51002) - http://www.bohemiancoding.com/sketch -->
    <title>ico_quality</title>
    <desc>Created with Sketch.</desc>
    <defs></defs>
    <g id="Page-1" stroke="none" stroke-width="1" fill="none" fill-rule="evenodd">
        <g id="ico_quality" transform="translate(0.000000, -21.000000)">
            <rect id="Rectangle-path" x="0" y="0" width="88" height="88"></rect>
            <rect id="Rectangle-path" fill="#FFE735" fill-rule="nonzero" x="0" y="61" width="74" height="24" rx="4"></rect>
            <path d="M54.5133377,40.2123974 L54.6466623,42.2079486 L40.66,43.1401814 C39.6938913,43.1401814 38.0246325,41.2007762 38.4526537,40.2020774 L42.099019,31.8108419 C43.9516907,26.1136422 42.2048366,24.0406665 37.7095009,22.9886104 C37.4294826,22.9459823 37.1440511,23.0171982 36.9168759,23.1863727 C36.6896989,23.3555487 36.539678,23.6086112 36.5002791,23.8891105 L36.4756163,24.0099872 C36.2539905,24.8331763 36.0784753,25.463128 35.921031,26.0065151 C35.8274558,26.3294711 35.5688297,27.1965342 35.5985323,27.0959531 C35.5854817,27.1401978 35.5854817,27.1401978 35.5725065,27.1844216 C35.4340837,27.6569123 35.3139767,28.1037859 35.1311596,28.8384899 C34.655399,30.7763288 33.6806332,32.5558591 32.2994046,34.0046932 L32.0620754,34.2475928 C30.9635941,35.5404745 30.1927773,37.0789884 29.8175286,38.7209514 C28.9418719,42.7815225 27.4357821,45.7141737 25.4568689,47.6646298 C24.2938161,48.8109577 23.0346147,49.5522975 21.76245,49.9614066 C20.9551126,50.2210341 20.2875227,50.3074797 19.8307764,50.3004985 C19.8224231,50.3003482 19.835536,49.6338307 19.8701153,48.300946 C19.9209959,48.3015741 20.0386307,48.2953594 20.2062002,48.273661 C20.4901466,48.2368931 20.8075998,48.167599 21.1501618,48.0574362 C22.132306,47.7415934 23.119067,47.1606496 24.0529341,46.2402116 C25.7392911,44.5781048 27.0652482,41.9962072 27.8651242,38.2873995 C28.3145969,36.3202545 29.2313996,34.4903594 30.5805954,32.9055133 L30.8562012,32.6200909 C31.9921215,31.4285479 32.7963264,29.9603932 33.1895896,28.3585981 C33.3795048,27.595347 33.506669,27.1222166 33.6531773,26.622127 C33.6666579,26.5761806 33.6668042,26.575682 33.679983,26.5310026 C33.6557262,26.6132428 33.9096011,25.7620556 34.0000423,25.4499161 C34.1503895,24.9310231 34.3183065,24.3288025 34.529917,23.5437466 C34.6576447,22.7608641 35.0847138,22.0571215 35.7223367,21.5822916 C36.378147,21.0939179 37.2021363,20.8883306 38.0872316,21.0261595 C43.6701364,22.328849 46.2788547,25.4245909 43.9673463,32.5181813 L40.4531606,40.6161357 C40.501131,40.6807417 40.5575972,40.7512904 40.6191704,40.8228283 C40.7157673,40.9350581 40.8167999,41.0403333 40.9046607,41.121606 L54.5133377,40.2123974 Z M20,70.538911 L20,71 C20,72.6568542 18.6568542,74 17,74 L11,74 C9.34314575,74 8,72.6568542 8,71 L8,49 C8,47.3431458 9.34314575,46 11,46 L17,46 C18.6568542,46 20,47.3431458 20,49 L20,68.3609897 C20.3165006,68.5022734 20.6784295,68.6571303 21.0834969,68.8225529 C22.4299714,69.3724301 23.9656481,69.9232286 25.661959,70.4376978 C34.3833159,73.0827727 43.5339283,73.750831 52.1770912,71.2435502 C52.2562471,71.2066761 52.3415806,71.17964 52.4318143,71.1642447 C53.8221243,70.9270354 54.707899,70.3857986 55.2362787,69.6408026 C55.4718919,69.3085965 55.6234202,68.951423 55.7066865,68.5939519 C55.7556796,68.383619 55.7705734,68.2278769 55.770043,68.1590102 C55.77,66.7006946 55.3191415,65.9477736 54.5659496,65.5797125 C54.151432,65.3771507 53.6965133,65.3154875 53.3495398,65.3345862 C52.7920218,65.390873 52.3011931,64.9908917 52.2451601,64.4414568 C52.189127,63.8920218 52.5891083,63.4011931 53.1385432,63.3451601 C53.1700874,63.3420967 53.1700874,63.3420967 53.2396186,63.3376092 C53.5986777,63.3178452 53.9929906,63.3401954 54.4022124,63.4256714 C54.4904674,63.4097791 54.5823476,63.4055862 54.6760012,63.4146188 C55.9986435,63.5421833 56.731159,63.0394356 57.1680978,62.0258262 C57.3195646,61.674454 57.41993,61.2864083 57.4759675,60.8964216 C57.5093226,60.6642902 57.52,60.4909051 57.52,60.41 L57.5274312,60.2883149 C57.6966239,58.9082333 57.159862,58.2105696 56.0089647,57.8360162 C55.8681605,57.7901922 55.7245937,57.7517062 55.5805496,57.7198371 C55.5205794,57.7160888 55.4600656,57.7114305 55.3990085,57.7058517 C55.3010142,57.6968979 55.2076191,57.674092 55.1205793,57.6395436 C54.790892,57.5965709 54.4717081,57.5849151 54.1913516,57.5956388 C54.148089,57.5976086 54.148089,57.5976086 54.150531,57.5975096 C53.5996216,57.6364628 53.1214436,57.2214403 53.0824904,56.670531 C53.0435372,56.1196216 53.4585597,55.6414436 54.009469,55.6024904 C54.0375835,55.6005762 54.0375835,55.6005762 54.1149073,55.5971003 C54.6374977,55.5771111 55.2296626,55.6100942 55.8399028,55.7300954 C57.0015523,55.7650359 57.66815,55.2634082 58.0764285,54.3225023 C58.2286248,53.9717557 58.3294684,53.5844206 58.3857725,53.1951505 C58.4192786,52.9634993 58.43,52.7905417 58.43,52.71 L58.4375024,52.5877358 C58.5981982,51.2832644 57.9364441,50.5709097 56.5044127,50.1752477 C56.2709039,50.1107305 56.0261226,50.0589224 55.7743684,50.0188534 C55.6516189,50.0151359 55.526498,50.0075005 55.3990085,49.9958517 L55.4015087,49.9684876 C55.296518,49.9567268 55.1907169,49.9468384 55.0843968,49.9387566 C54.7410714,49.9126594 54.4370097,49.9081494 54.1995908,49.9158182 C54.1420061,49.9180259 54.1420061,49.9180259 54.1396207,49.9182211 C53.5883184,49.9511487 53.1147065,49.530923 53.0817789,48.9796207 C53.0488513,48.4283184 53.469077,47.9547065 54.0203793,47.9217789 C54.0486377,47.9201439 54.0486377,47.9201439 54.1350226,47.9168607 C54.6903473,47.8989232 55.3166156,47.9252579 55.9639321,48.0217858 C57.0494012,48.0182008 57.6829066,47.5194005 58.0764285,46.6125023 C58.2286248,46.2617557 58.3294684,45.8744206 58.3857725,45.4851505 C58.4192786,45.2534993 58.43,45.0805417 58.43,45 L58.4375024,44.8777358 C58.5981982,43.5732644 57.9364441,42.8609097 56.5044127,42.4652477 C56.0618127,42.3429598 55.5787143,42.2663312 55.0843968,42.2287566 C54.7410714,42.2026594 54.4370097,42.1981494 54.1995908,42.2058182 C54.1420061,42.2080259 54.1420061,42.2080259 54.1396207,42.2082211 L54.0203793,40.2117789 C54.0486377,40.2101439 54.0486377,40.2101439 54.1350226,40.2068607 C54.9941492,40.1791101 56.0230744,40.2573219 57.0370449,40.5374761 C59.3059628,41.1643651 60.7008107,42.650933 60.4295914,45.0620711 C60.421449,45.684656 60.2902262,46.535009 59.9111464,47.4086244 C59.63318,48.0492171 59.2559539,48.5938392 58.7801936,49.017391 C59.9780956,49.8205745 60.6216748,51.0644508 60.4295914,52.7720711 C60.421449,53.394656 60.2902262,54.245009 59.9111464,55.1186244 C59.5715263,55.9013022 59.0837312,56.5407149 58.4490843,56.9910831 C59.2787153,57.8033379 59.6902292,58.964399 59.5195932,60.4721038 C59.5114979,61.0942508 59.3811837,61.9442259 59.0047208,62.8175434 C58.5640525,63.8398043 57.8719688,64.6180845 56.9316265,65.0504504 C57.4709615,65.8268571 57.7699518,66.8563725 57.7698838,68.1347579 C57.7755591,68.867562 57.5500718,69.8356035 56.867631,70.79782 C56.0514809,71.9485619 54.7505272,72.7624503 52.9329164,73.1061391 C52.9297268,73.1071156 52.9265289,73.1080774 52.9233226,73.1090247 C43.7992201,75.8045391 34.2051208,75.1186883 25.0814941,72.3516102 C23.3234504,71.8184182 21.7295108,71.2467227 20.3273543,70.6741058 C20.2151946,70.6283017 20.1060628,70.5832169 20,70.5389065 L20,70.538911 Z M11,48 C10.4477153,48 10,48.4477153 10,49 L10,71 C10,71.5522847 10.4477153,72 11,72 L17,72 C17.5522847,72 18,71.5522847 18,71 L18,49 C18,48.4477153 17.5522847,48 17,48 L11,48 Z" id="Shape" fill="#413E3E" fill-rule="nonzero"></path>
        </g>
    </g>
</svg>