<?xml version="1.0" encoding="UTF-8"?>
<svg width="11px" height="17px" viewBox="0 0 11 17" version="1.1" xmlns="http://www.w3.org/2000/svg" xmlns:xlink="http://www.w3.org/1999/xlink">
    <!-- Generator: Sketch 49.2 (51160) - http://www.bohemiancoding.com/sketch -->
    <title>Fill 7 Copy 8</title>
    <desc>Created with Sketch.</desc>
    <defs></defs>
    <g id="Symbols" stroke="none" stroke-width="1" fill="none" fill-rule="evenodd" fill-opacity="0.102270154">
        <g id="DropsOilNavigation" transform="translate(-13.000000, -7.000000)" fill="#0B1324">
            <path d="M17.0898738,20.9027893 C16.734072,20.963546 16.3678055,21 15.9910742,21 C12.6920591,21 10,18.5241646 10,15.4984811 C10,12.4697597 12.6920591,10.0030378 15.9910742,10.0030378 C15.9963066,10.0030378 16.0041551,10.0030378 16.0093875,10.0030378 L16.0093875,10 C16.043398,10.0030378 16.0774084,10.0060757 16.1114189,10.0060757 C16.4070483,10.0091135 16.7000616,10.036454 16.9878424,10.0820215 C20.3679594,10.5376968 24.7134503,12.9132836 27,15.4954432 L27,15.5045568 C24.736996,18.0593759 20.4542936,20.4136979 17.0898738,20.9027893" id="Fill-7-Copy-8" transform="translate(18.500000, 15.500000) rotate(-90.000000) translate(-18.500000, -15.500000) "></path>
        </g>
    </g>
</svg>